<svg
   xmlns="http://www.w3.org/2000/svg"
   width="20"
   height="18.44"
   viewBox="0 0 20 18.44"
   fill="none">
  <path
     d="M 5.044922,2.7376703e-4 C 2.2500221,2.7376703e-4 5.0000001e-8,2.2502948 5.0000001e-8,5.0451948 V 13.394805 C 5.0000001e-8,16.189706 2.2500221,18.439727 5.044922,18.439727 h 9.910156 C 17.749978,18.439727 20,16.189706 20,13.394805 V 5.0451948 C 20,2.2502948 17.749978,2.7176703e-4 14.955078,2.7376703e-4 Z M 16.085937,2.3889448 a 1.2685,1.2685 0 0 1 0.0039,0 1.2685,1.2685 0 0 1 1.267578,1.267579 1.2685,1.2685 0 0 1 -1.267578,1.267578 1.2685,1.2685 0 0 1 -1.269532,-1.267578 1.2685,1.2685 0 0 1 1.265625,-1.267579 z M 10,4.0217578 A 5.1975017,5.1975017 0 0 1 15.197265,9.2190238 5.1975017,5.1975017 0 0 1 10,14.418242 5.1975017,5.1975017 0 0 1 4.802734,9.2190238 5.1975017,5.1975017 0 0 1 10,4.0217578 Z m 0,1.890625 A 3.3080003,3.3080003 0 0 0 6.691406,9.2190238 3.3080003,3.3080003 0 0 0 10,12.527617 3.3080003,3.3080003 0 0 0 13.308594,9.2190238 3.3080003,3.3080003 0 0 0 10,5.9123828 Z" 
     fill= "#000000" />
</svg>
