<svg
   xmlns="http://www.w3.org/2000/svg"
   width="20"
   height="18.44"
   viewBox="0 0 20 18.44"
   fill="none">
  <path
     d="M 2.5859378,2.7396703e-4 C 1.1532918,2.7296703e-4 -2.5e-7,1.153565 -2.5e-7,2.586211 v 13.267578 c 0,1.432647 1.15329195,2.585938 2.58593795,2.585938 H 17.414063 C 18.846708,18.439727 20,17.286436 20,15.853789 V 2.586211 C 20,1.153565 18.846708,2.7396703e-4 17.414063,2.7396703e-4 Z M 4.6718757,4.03543 c 0.40702,0 0.753707,0.117032 1.041015,0.351562 0.287308,0.23453 0.4316411,0.517358 0.4316411,0.84961 0,0.327364 -0.144333,0.612146 -0.4316411,0.8515616 -0.287308,0.23453 -0.633996,0.351563 -1.041015,0.351563 -0.401035,0 -0.745896,-0.117033 -1.0332039,-0.351563 C 3.3513638,5.848748 3.2089848,5.563966 3.2089848,5.236602 c 0,-0.332252 0.142379,-0.61508 0.429687,-0.84961 0.287308,-0.23453 0.632169,-0.351562 1.0332039,-0.351562 z m 9.0312503,3.3124996 c 0.87988,0 1.614584,0.230165 2.201171,0.689453 0.592573,0.459288 0.888672,1.115646 0.888672,1.9707034 v 4.398438 H 14.126954 V 10.19168 c 0,-0.9234624 -0.440432,-1.3847664 -1.320313,-1.3847664 -0.628487,0 -1.248845,0.380356 -1.859375,1.142578 V 14.406524 H 8.2812502 V 7.4866016 h 2.6660158 v 0.990234 c 0.784112,-0.752451 1.702396,-1.128906 2.75586,-1.128906 z M 3.3515628,7.4866016 h 2.667969 v 6.9199224 h -2.667969 z" 
     fill= "#000"/>
</svg>
